<?xml version="1.0" standalone="no"?>
<!DOCTYPE svg PUBLIC "-//W3C//DTD SVG 20010904//EN"
 "http://www.w3.org/TR/2001/REC-SVG-20010904/DTD/svg10.dtd">
<svg version="1.0" xmlns="http://www.w3.org/2000/svg"
 width="944.000000pt" height="944.000000pt" viewBox="0 0 944.000000 944.000000"
 preserveAspectRatio="xMidYMid meet">
<metadata>
Created by potrace 1.14, written by Peter Selinger 2001-2017
</metadata>
<g transform="translate(0.000000,944.000000) scale(0.100000,-0.100000)"
fill="#000000" stroke="none">
<path d="M6057 9434 c-1 -1 -40 -5 -87 -8 -47 -3 -96 -8 -110 -10 -14 -3 -47
-7 -75 -10 -97 -11 -140 -17 -155 -22 -8 -3 -28 -8 -45 -10 -43 -6 -199 -40
-270 -58 -33 -9 -71 -19 -85 -22 -27 -6 -309 -100 -350 -117 -14 -6 -27 -11
-30 -12 -3 -1 -22 -9 -44 -18 -21 -9 -40 -17 -42 -17 -8 0 -266 -122 -274
-130 -3 -3 -18 -12 -35 -20 -225 -109 -566 -348 -794 -555 -76 -69 -264 -259
-311 -315 -25 -29 -56 -66 -70 -82 -84 -95 -270 -348 -270 -367 0 -4 -8 -15
-17 -24 -10 -9 -27 -33 -38 -54 -11 -21 -22 -40 -25 -43 -14 -12 -116 -203
-174 -323 -85 -176 -165 -373 -157 -386 2 -2 -1 -7 -6 -10 -20 -14 -141 -448
-158 -566 -1 -11 -8 -49 -15 -85 -13 -70 -17 -97 -25 -175 -3 -27 -8 -61 -10
-75 -24 -133 -24 -649 1 -825 3 -22 7 -56 9 -75 4 -54 17 -144 21 -151 1 -3 6
-25 9 -50 7 -53 13 -84 15 -84 1 0 4 -11 5 -25 2 -14 8 -43 14 -65 5 -22 12
-51 15 -65 5 -25 9 -38 41 -155 26 -98 91 -284 141 -406 63 -155 219 -468 258
-519 7 -8 21 -32 31 -52 11 -21 23 -38 27 -38 5 0 8 -5 8 -10 0 -6 20 -39 45
-74 25 -36 45 -68 45 -71 0 -4 6 -12 13 -19 6 -7 21 -25 32 -40 32 -44 74
-100 86 -115 7 -7 44 -52 83 -100 84 -103 66 -83 202 -222 124 -126 245 -237
332 -304 7 -5 27 -22 43 -38 16 -15 32 -27 34 -27 3 0 33 -21 67 -47 103 -79
363 -246 372 -240 1 1 11 -5 20 -12 31 -25 196 -111 356 -183 115 -53 409
-160 475 -174 6 -1 60 -16 120 -32 97 -27 238 -58 302 -67 12 -2 34 -6 50 -9
47 -10 95 -17 148 -22 27 -3 64 -7 80 -9 61 -8 223 -17 315 -19 l95 -1 2 398
c2 383 2 397 -16 388 -10 -6 -21 -8 -23 -5 -3 2 -52 7 -109 9 -143 7 -281 20
-332 31 -12 3 -35 7 -52 10 -167 27 -402 90 -559 149 -50 19 -97 35 -103 35
-7 0 -13 4 -13 9 0 5 -12 12 -27 15 -34 9 -294 137 -311 153 -7 7 -18 13 -23
13 -6 0 -20 7 -32 15 -12 8 -78 52 -147 98 -69 45 -134 90 -145 99 -165 133
-241 201 -350 313 -141 144 -137 139 -240 270 -80 103 -225 318 -225 334 0 6
-4 11 -8 11 -4 0 -13 12 -19 28 -6 15 -30 61 -53 102 -23 41 -64 127 -92 190
-27 63 -54 124 -59 135 -16 37 -100 301 -114 364 -13 53 -34 152 -39 182 -3
19 -7 43 -10 54 -3 18 -13 87 -22 155 -30 227 -24 627 12 845 3 16 7 49 10 73
2 24 6 47 8 51 3 4 7 18 9 32 15 79 77 317 94 359 4 8 7 17 7 20 1 3 4 10 8
16 4 6 9 21 12 35 2 13 13 45 25 72 11 26 18 47 14 47 -3 0 1 8 10 18 9 10 18
27 19 38 2 10 22 58 46 106 23 47 42 91 42 97 0 6 5 11 10 11 6 0 10 6 10 14
0 8 7 21 15 30 9 8 14 17 13 19 -3 4 19 41 85 152 34 55 158 234 182 261 6 6
17 22 25 34 8 12 31 39 50 60 19 22 53 60 75 86 52 62 177 186 250 249 32 28
63 55 69 60 41 38 155 125 165 125 6 0 11 3 11 8 0 4 24 23 53 42 28 19 54 38
55 43 2 4 8 7 12 7 5 0 28 13 52 29 24 16 60 38 81 50 20 11 52 29 70 39 17
11 70 38 117 61 47 24 97 49 113 57 15 8 27 12 27 7 0 -4 4 -3 8 3 4 5 30 18
57 29 28 10 66 25 85 34 19 8 37 15 40 16 11 3 216 67 230 73 8 3 24 7 35 9
37 8 50 11 53 13 2 3 5 4 57 14 22 4 51 10 65 13 14 3 34 7 45 8 11 2 20 4 20
5 0 3 97 18 163 26 17 2 49 6 70 9 53 6 238 18 294 18 l48 1 -3 390 -2 391
-118 0 c-65 0 -119 0 -120 -1z"/>
<path d="M6167 7864 c-1 -1 -40 -5 -87 -8 -47 -4 -92 -8 -100 -10 -8 -3 -37
-7 -65 -11 -27 -3 -57 -8 -65 -10 -8 -2 -26 -7 -40 -9 -106 -22 -260 -66 -305
-86 -11 -5 -58 -24 -105 -42 -47 -17 -87 -35 -90 -38 -3 -3 -25 -14 -50 -25
-56 -24 -264 -145 -268 -157 -2 -4 -8 -8 -13 -8 -18 0 -206 -148 -295 -232
-75 -72 -155 -158 -241 -261 -13 -15 -23 -32 -23 -37 0 -6 -4 -10 -8 -10 -10
0 -152 -214 -152 -229 0 -6 -4 -11 -9 -11 -5 0 -13 -10 -17 -22 -3 -13 -16
-36 -28 -53 -11 -16 -20 -31 -19 -32 2 -2 -11 -31 -28 -65 -41 -86 -112 -283
-142 -398 -39 -149 -55 -240 -72 -415 -7 -76 -8 -317 0 -378 3 -26 7 -66 10
-89 3 -24 12 -81 20 -128 8 -47 17 -97 19 -113 3 -15 7 -31 10 -36 3 -4 8 -22
11 -40 22 -124 148 -432 237 -579 21 -34 38 -67 38 -72 0 -6 5 -10 10 -10 6 0
10 -4 10 -10 0 -10 56 -94 78 -119 7 -7 21 -26 30 -40 18 -28 54 -72 90 -108
12 -13 22 -26 22 -30 0 -15 277 -274 318 -297 10 -5 23 -16 31 -23 22 -23 159
-113 171 -113 5 0 10 -4 10 -8 0 -4 33 -25 73 -47 39 -21 87 -47 105 -57 89
-50 359 -152 453 -172 13 -3 44 -11 69 -17 25 -6 54 -13 65 -14 11 -2 45 -8
75 -14 110 -20 152 -24 310 -31 25 -1 55 -1 67 -1 l22 1 0 1053 c0 578 1 1109
1 1178 l0 126 1138 0 c625 1 1157 2 1181 2 l43 1 -6 113 c-6 120 -11 164 -19
212 -3 17 -8 50 -12 75 -11 76 -53 241 -86 341 -48 149 -156 384 -210 461 -11
14 -19 29 -19 32 0 9 -136 204 -154 221 -6 6 -29 33 -51 60 -76 96 -245 258
-365 350 -36 28 -67 52 -70 55 -6 7 -173 111 -225 141 -221 125 -508 225 -755
263 -19 3 -45 8 -58 10 -64 13 -455 30 -465 20z"/>
<path d="M794 5342 c6 -182 11 -266 21 -363 12 -123 30 -262 42 -329 3 -19 7
-47 9 -63 2 -15 6 -39 9 -55 10 -46 16 -76 19 -97 2 -11 7 -31 10 -45 3 -14 8
-37 11 -52 3 -16 7 -38 10 -50 3 -13 7 -33 9 -46 3 -12 7 -26 10 -30 3 -5 7
-19 9 -33 6 -29 35 -143 47 -184 5 -16 17 -54 26 -83 9 -29 17 -58 18 -65 1
-7 7 -25 13 -42 6 -16 35 -95 63 -175 28 -80 57 -158 65 -175 7 -16 32 -75 55
-130 47 -110 162 -349 211 -435 17 -30 38 -68 47 -85 9 -16 24 -38 32 -49 8
-10 15 -21 14 -25 -1 -3 6 -17 14 -31 55 -91 165 -264 172 -270 3 -3 27 -37
52 -75 26 -39 56 -79 66 -90 10 -11 21 -27 24 -35 5 -13 214 -277 242 -306 6
-6 40 -44 76 -85 77 -87 309 -321 396 -399 33 -30 78 -71 100 -90 21 -20 86
-74 144 -120 58 -46 107 -88 108 -92 2 -4 10 -8 17 -8 7 0 15 -3 17 -7 5 -13
86 -73 97 -73 5 0 11 -4 13 -8 3 -8 205 -152 213 -152 2 0 37 -22 78 -50 41
-27 80 -50 86 -50 6 0 11 -5 11 -11 0 -5 4 -8 9 -5 5 3 14 -1 21 -9 7 -8 19
-15 26 -15 8 0 14 -4 14 -10 0 -5 4 -10 10 -10 5 0 33 -14 62 -31 76 -45 422
-218 468 -234 7 -2 60 -24 95 -39 193 -83 474 -181 635 -221 36 -10 72 -20 80
-23 18 -7 16 -6 65 -17 22 -4 45 -9 50 -11 33 -9 64 -16 90 -20 17 -2 37 -7
45 -10 15 -6 92 -22 145 -30 17 -3 41 -8 55 -10 14 -3 36 -7 50 -8 14 -2 39
-6 55 -10 17 -3 48 -8 70 -11 57 -6 114 -13 160 -20 102 -14 233 -22 457 -30
l168 -7 -3 394 -2 393 -50 2 c-222 7 -338 15 -465 28 -57 6 -71 8 -155 21 -27
4 -57 8 -65 9 -15 2 -85 14 -125 21 -180 33 -496 112 -537 135 -10 5 -27 9
-38 9 -11 0 -28 4 -38 10 -9 5 -46 19 -82 31 -36 11 -71 25 -77 31 -7 6 -13 8
-13 5 0 -3 -17 1 -37 10 -43 17 -85 34 -93 35 -4 1 -60 26 -170 75 -42 19
-305 150 -340 170 -14 8 -43 25 -65 39 -22 13 -47 27 -55 31 -17 7 -262 164
-270 173 -3 3 -34 25 -70 49 -36 25 -67 47 -70 51 -3 3 -39 31 -80 62 -41 32
-88 69 -103 82 -16 14 -46 39 -67 56 -89 72 -304 280 -417 402 -41 45 -216
253 -267 318 -29 38 -139 194 -193 275 -145 218 -279 468 -405 755 -48 108
-145 380 -179 500 -7 25 -13 47 -14 50 -9 28 -17 60 -20 76 -2 10 -4 19 -5 19
-1 0 -3 7 -5 15 -1 8 -10 42 -18 75 -9 33 -18 71 -21 85 -3 14 -8 36 -11 50
-3 14 -7 39 -9 55 -3 17 -7 42 -10 55 -8 34 -16 78 -21 120 -3 19 -7 46 -10
60 -6 30 -18 134 -30 250 -4 43 -17 295 -19 370 l-1 55 -393 2 -393 1 5 -166z"/>
</g>
</svg>
